<svg width="257" height="45" viewBox="0 0 257 45" fill="none" xmlns="http://www.w3.org/2000/svg">
<g clip-path="url(#clip0_4878_69658)">
<path fill-rule="evenodd" clip-rule="evenodd" d="M165.753 24.0266C165.662 29.0456 166.746 31.704 170.883 31.704C175.014 31.704 175.606 27.1756 175.606 23.7295C175.606 20.2813 174.823 16.9338 170.483 16.9338C167.821 16.9338 165.855 19.0025 165.753 24.0266ZM157.383 45V11.0264H165.855V12.4045C165.855 14.2427 166.596 13.4847 167.194 12.7683C167.294 12.6486 169.182 10.3373 173.435 10.3373C177.674 10.3373 184.27 13.2907 184.27 23.7296C184.27 31.8041 180.335 37.7115 173.539 37.7115C169.795 37.7115 167.63 36.2371 167.135 35.6421C166.639 35.0553 165.951 34.9529 165.951 35.6421V44.9999L157.383 45ZM91.8974 0H101.056V24.0266C101.056 28.1595 99.2814 36.8276 86.5804 36.8276C73.878 36.8276 72.5 28.7485 72.5 24.2222V19.7916H81.3629V24.1222C81.3629 26.7806 83.1359 29.2412 86.482 29.2412C89.8295 29.2412 91.8974 27.3711 91.8974 24.2222V0ZM120.209 20.3821C120.209 17.9177 118.833 15.5548 115.682 15.5548C112.63 15.5548 111.546 17.7191 111.546 20.3821H120.209ZM114.799 10.0417C121.991 10.0417 128.291 12.7979 128.291 25.501H111.257C111.257 29.5384 112.929 31.2128 115.883 31.2128C118.838 31.2128 119.822 28.8477 119.822 28.8477H128.194C128.194 32.4924 123.172 37.4159 115.587 37.3181C106.925 37.3181 102.69 30.9172 102.69 24.3193C102.69 17.7191 106.429 10.0417 114.799 10.0417ZM147.44 20.3821C147.44 17.9177 146.063 15.5548 142.912 15.5548C139.861 15.5548 138.774 17.7191 138.774 20.3821H147.44ZM142.03 10.0417C149.222 10.0417 155.519 12.7979 155.519 25.501H138.486C138.486 29.5384 140.16 31.2128 143.116 31.2128C146.068 31.2128 147.053 28.8477 147.053 28.8477H155.426C155.426 32.4924 150.402 37.4159 142.821 37.3181C134.153 37.3181 129.918 30.9172 129.918 24.3193C129.918 17.7191 133.662 10.0417 142.03 10.0417Z" fill="white"/>
</g>
<defs>
<clipPath id="clip0_4878_69658">
<rect width="256" height="45" fill="white" transform="translate(0.5)"/>
</clipPath>
</defs>
</svg>
