<svg width="219" height="45" viewBox="0 0 219 45" fill="none" xmlns="http://www.w3.org/2000/svg">
<g clip-path="url(#clip0_4878_69645)">
<path fill-rule="evenodd" clip-rule="evenodd" d="M110.875 43.9274C110.682 45.3577 107.601 45.3577 107.408 43.9264C106.597 45.4568 104.234 45.0226 103.898 43.484C102.926 44.899 100.677 44.239 100.462 42.7494C99.521 43.7752 97.6544 43.3644 97.2314 42.0363C90.3086 39.1889 85.2401 34.0377 83.2581 27.8872C82.8505 27.7125 82.4827 27.4489 82.1905 27.0689C80.0491 27.5726 77.6564 28.5809 76.7747 26.1872C74.8856 26.6919 70.9215 28.0109 69.7221 24.8028C66.9514 25.1808 62.9209 25.4322 62.4172 22.5358C60.0244 22.5358 55.8683 22.1567 55.8683 19.387C53.4756 19.387 49.3194 17.7503 49.8231 15.8602C47.6817 15.6089 44.7853 13.3418 44.7853 11.8308C42.6449 11.2014 40.2512 9.5647 40.7559 7.42329C39.4961 6.66828 37.3547 5.78658 37.3547 4.52687C37.3547 3.26818 38.36 2.2598 39.4941 2.2598C40.6281 2.2598 44.91 2.5193 46.421 2.5193C47.9321 2.5193 66.1943 2.26695 70.4761 2.5193C74.7589 2.77063 80.1738 2.89016 82.8188 2.63781C84.7682 2.45289 91.4069 2.07283 95.3914 3.13741C103.834 -1.04631 114.451 -1.04529 122.892 3.13741C126.877 2.07181 133.515 2.45187 135.463 2.63985C138.108 2.89118 143.524 2.77267 147.806 2.52134C152.088 2.26899 170.35 2.52134 171.86 2.52134C173.371 2.52134 177.653 2.26184 178.787 2.26184C179.921 2.26184 180.928 3.27022 180.928 4.52891C180.928 5.7876 178.787 6.6693 177.528 7.42533C178.033 9.56572 175.639 11.2035 173.499 11.8328C173.499 13.3438 170.601 15.6109 168.46 15.8622C168.964 17.7513 164.808 19.389 162.415 19.389C162.415 22.1598 158.26 22.5378 155.867 22.5378C155.362 25.4342 151.333 25.1829 148.562 24.8049C147.363 28.0119 143.399 26.6929 141.509 26.1892C140.628 28.582 138.235 27.5746 136.094 27.0709C135.814 27.4315 135.447 27.7134 135.026 27.8893C133.044 34.0387 127.976 39.1899 121.053 42.0373C120.63 43.3655 118.763 43.7762 117.822 42.7504C117.608 44.24 115.358 44.901 114.386 43.485C114.049 45.0236 111.687 45.4578 110.875 43.9274ZM87.354 27.5746C86.7343 27.871 86.0691 28.061 85.3863 28.1365C87.3152 33.2132 91.692 37.5246 97.6044 40.1002L100.646 34.9449C96.8167 33.5462 93.7067 31.2311 91.837 28.3868C90.4353 28.915 88.0947 29.2675 87.354 27.5746ZM97.164 41.4386C97.1843 41.1331 97.2572 40.8335 97.3796 40.5528C91.3007 37.8996 86.8064 33.4308 84.8601 28.1723C84.5199 28.1784 84.1797 28.1508 83.8517 28.0793C85.8389 33.8599 90.6366 38.6822 97.164 41.4386ZM100.579 41.5929C100.613 41.4846 102.885 35.7142 102.873 35.6335C102.278 35.4803 101.697 35.3086 101.13 35.1165L98.0375 40.3577C96.739 42.6053 99.6089 43.9825 100.576 41.6021C100.578 41.5991 100.579 41.596 100.579 41.5929ZM103.85 42.3336C103.85 42.3336 105.306 36.1454 105.3 36.1229C104.694 36.032 104.098 35.9196 103.514 35.7868L101.056 41.7594C100.38 43.9887 103.251 44.7151 103.85 42.3336ZM107.22 42.7096C107.222 42.6585 107.653 36.4202 107.632 36.365C107.024 36.3303 106.425 36.2731 105.835 36.1985C105.83 36.2118 104.425 42.2774 104.425 42.2753C103.861 44.8275 107.007 45.2719 107.22 42.7096ZM107.768 42.6707C107.618 45.2157 110.787 45.1646 110.597 42.6564C110.591 42.6064 110.2 36.4866 110.172 36.4335C109.566 36.4948 108.697 36.4774 108.108 36.4529C108.103 36.4682 107.768 42.6707 107.768 42.6707ZM39.4267 3.76675C38.5797 4.41244 39.8588 5.86525 42.2413 6.33828C46.6457 7.21181 54.2664 7.23735 55.7314 7.23735C57.6205 7.23735 70.9308 7.04732 72.0015 6.98397C73.0722 6.92063 72.8832 6.03996 72.0015 5.7876C70.0501 5.15724 57.5816 3.77186 55.8182 3.77186C54.0548 3.77186 44.9865 3.51951 41.0828 3.51951C40.3155 3.56242 39.7087 3.55118 39.4267 3.76675ZM43.7146 8.43065C43.3999 8.43065 42.7073 8.36833 43.3366 9.25003C43.967 10.1317 46.422 11.0768 48.2488 11.0134C57.9464 11.2024 70.7295 9.75473 72.1149 9.43903C74.8478 8.81786 74.0101 7.66542 71.4222 7.80131C70.2258 7.86465 59.9611 8.43065 58.6391 8.49399C57.316 8.55734 45.9817 8.49399 43.7146 8.43065ZM48.1231 12.5878C46.4854 12.6501 49.1928 14.8549 51.5232 14.9172C58.5124 14.7915 72.2845 12.1332 73.4369 11.8951C74.808 11.6121 75.5742 9.86711 72.1782 10.3841C68.2734 11.2024 49.6975 12.5878 48.1231 12.5878ZM52.8452 16.4916C52.8452 16.4916 51.1391 17.1455 55.1603 17.9495C56.3478 18.1745 57.5579 18.2561 58.7648 18.1927C61.6111 18.0404 74.1153 14.9969 75.2636 14.6659C76.553 14.294 77.2773 11.9094 73.6892 12.8391C69.7221 13.9098 55.05 16.2392 52.8452 16.4916ZM58.7648 19.766C57.9505 20.5507 61.0952 21.4661 62.7952 21.4661C67.455 21.2137 77.2783 17.1209 77.971 16.8063C79.0897 16.2975 78.5544 14.5494 76.7747 15.1696C73.1222 16.5539 60.3392 19.4514 58.7648 19.766ZM79.6077 17.1209C78.16 17.8136 69.3441 21.5294 65.943 22.2854C65.471 22.4111 64.9724 22.6195 65.0122 22.8821C65.3146 24.8927 71.5734 23.1825 72.0076 23.0435C74.4146 22.2722 79.3217 20.471 81.4028 18.443C80.8992 18.1916 79.7344 17.3733 79.6077 17.1209ZM82.2528 19.2623C81.3088 19.8917 75.1369 23.1048 72.3038 23.9855C70.8234 24.479 72.3815 26.0012 75.2728 25.1768C78.4686 24.6813 83.1345 20.9001 83.8906 20.2074C83.5126 20.0184 82.6942 19.5147 82.2528 19.2623ZM85.1503 20.9634C84.0091 21.744 81.8125 23.2029 80.4179 24.1336C79.8427 24.5178 78.4696 25.2769 78.4992 25.8838C78.5135 26.1739 79.0652 26.7246 81.5857 25.8092C83.1529 25.1676 85.0502 23.8629 86.6613 21.5304C86.3466 21.4344 85.5273 21.1514 85.1503 20.9634ZM87.9833 21.9074C87.3928 22.498 86.6297 23.3051 85.8828 24.0488C85.1952 24.9356 83.6627 25.5742 84.1899 26.5989C84.761 27.7084 86.5592 26.1116 87.2069 25.5006C88.1223 24.6353 89.006 23.492 89.3381 22.3478C88.8967 22.2221 88.393 22.0964 87.9833 21.9074ZM66.0696 3.26818C65.6283 3.3305 65.6283 3.64517 66.2587 3.71158C67.7064 3.89957 74.5995 5.50971 76.4252 5.82438C78.252 6.13906 83.6392 6.16664 87.354 6.29231C88.5585 6.33317 89.5445 6.47416 90.3444 6.68973C95.417 8.05877 92.4511 11.2729 91.1321 13.9119C90.3761 15.4863 91.4468 15.6753 92.2018 15.99C92.3274 11.5815 95.2249 9.88142 96.1689 9.18873C96.972 8.60025 98.105 7.78598 98.105 6.43023C98.105 5.38813 97.6248 4.41857 94.2768 3.73099C88.8906 2.62453 81.0544 3.64619 75.2636 3.64619C73.2479 3.64619 67.7074 3.26818 66.0696 3.26818ZM80.6274 7.09738C79.8724 7.1597 80.187 8.54508 81.3834 8.23347C80.1236 8.92514 80.8164 9.80786 82.0128 9.61783C81.3201 10.5618 82.3908 11.1289 83.3348 10.8142C82.2018 12.3263 83.9651 12.3886 84.5945 11.8849C83.6505 13.8363 85.2238 13.774 86.1689 13.0179C85.5395 14.4656 86.8615 14.5913 87.9323 13.9619C87.1139 14.906 88.0589 15.5363 88.5626 15.1583C89.1296 14.6546 90.5498 13.2478 91.0811 12.5766C93.7936 9.14275 91.1117 7.31295 87.356 7.13416C85.9982 7.06979 81.9494 7.09738 80.6274 7.09738ZM76.933 6.42819C76.4232 6.39549 74.2113 6.03587 74.2644 7.22815C74.3175 8.42146 76.7747 7.9709 77.2794 7.87691C78.2091 7.70425 78.9518 7.42023 78.9304 7.03506C78.9089 6.63967 77.9403 6.49153 76.933 6.42819ZM77.0229 8.47254C76.4856 8.51341 74.5536 8.41839 74.855 9.50953C74.95 9.85281 75.66 10.5475 78.0354 9.9703C79.0765 9.71693 79.6159 9.1591 79.6159 8.7157C79.6159 8.32849 78.2163 8.38161 77.0229 8.47254ZM78.5483 10.2441C78.1662 10.3074 75.9512 10.4587 76.3221 11.5753C76.5816 12.3538 76.98 12.1076 77.6553 12.1883C78.1008 12.2415 81.4008 11.3117 80.8848 10.2533C80.7316 9.93863 79.761 10.0449 78.5483 10.2441ZM79.6435 11.8267C77.4469 12.7186 77.4755 13.3224 77.5756 13.6483C77.6747 13.9752 78.6821 14.3788 80.7663 13.3602C81.8217 12.8442 81.8349 12.2578 81.5754 11.843C81.2516 11.323 80.4322 11.5059 79.6435 11.8267ZM81.1811 13.3265C78.8946 14.1234 79.0254 14.8508 79.2062 15.2779C79.4055 15.7499 80.1278 16.2525 82.0363 15.0367C83.1887 14.3032 83.9386 13.6881 83.7332 13.1998C83.5473 12.7564 82.4571 12.8718 81.1811 13.3265ZM82.076 15.617C81.4763 15.9808 81.2036 16.4732 81.5816 17.0341C82.2579 18.0394 84.2522 16.2658 84.7528 15.7233C85.1247 15.3208 85.3627 14.8978 85.1523 14.5882C84.9347 14.2695 84.2583 14.294 82.076 15.617ZM85.6866 15.7877C83.0242 17.1455 83.2796 17.8034 83.6505 18.0844C84.0601 18.395 85.0256 18.7209 86.6398 16.8553C87.3478 16.038 86.9586 15.143 85.6866 15.7877ZM87.0158 17.2119C86.4539 17.8402 85.137 18.7873 86.1566 19.4932C87.0158 20.0878 87.5195 19.435 87.9425 19.0304C90.3884 16.6775 89.5792 15.1879 87.0158 17.2119ZM120.712 26.1933C120.712 24.1847 118.643 22.1761 116.346 21.4834C115.732 21.3445 115.829 20.7989 116.307 20.5834C116.767 20.3749 119.449 18.5053 119.411 16.1504C119.411 13.8649 116.728 10.4014 108.912 10.4014C104.315 10.4014 100.483 11.4405 98.1847 13.3806C98.72 13.7964 99.334 14.4197 99.334 15.1123V27.7881C99.2574 28.5503 98.8743 29.1735 98.2603 29.8662C100.324 31.3313 104.019 32.7289 109.325 32.7115C114.995 32.5726 120.712 30.9032 120.712 26.1933ZM95.0502 4.87832C94.7937 4.74959 95.0185 4.29904 95.276 4.42777C97.7219 5.53525 98.1765 7.08308 96.0637 8.57471C95.8287 8.74022 95.5386 8.32849 95.7736 8.16298C97.6933 6.8062 96.9198 5.81315 95.0502 4.87832ZM109.3 20.0919C106.862 20.0919 104.885 18.5129 104.885 16.5651C104.885 14.6174 106.862 13.0384 109.3 13.0384C111.739 13.0384 113.716 14.6174 113.716 16.5651C113.716 18.5129 111.739 20.0919 109.3 20.0919ZM109.869 29.8468C107.136 29.8468 104.919 28.18 104.919 26.1238C104.919 24.0677 107.136 22.4009 109.869 22.4009C112.603 22.4009 114.819 24.0677 114.819 26.1238C114.819 28.18 112.603 29.8468 109.869 29.8468ZM90.1176 20.0419C90.2903 19.1827 90.5671 18.348 90.937 17.5459C90.9155 17.5143 90.2606 16.6765 88.6474 19.0079C87.7565 20.2942 89.3299 20.8122 90.1176 20.0419ZM90.0655 24.0018C89.4014 24.7732 88.7751 25.4209 88.3613 25.9379C87.497 27.0188 89.7457 28.3511 90.9574 26.8145C90.5375 25.9203 90.2376 24.9746 90.0655 24.0018ZM121.059 3.85257C121.415 3.65072 121.79 3.48376 122.178 3.354C114.115 -0.446595 104.168 -0.446595 96.1056 3.354C96.5245 3.49907 96.9004 3.66458 97.2243 3.85257C104.691 0.600611 113.658 0.629218 121.059 3.85257ZM124.77 13.8516C123.865 10.7028 121.605 9.42167 120.729 8.80867C118.966 7.57756 119.062 5.75798 120.568 4.18972C113.373 1.1564 104.826 1.19113 97.7157 4.18972C99.2216 5.75798 99.3167 7.57756 97.5553 8.80867C96.6787 9.42167 94.4178 10.7028 93.5136 13.8516C101.2 5.93064 117.084 5.92962 124.77 13.8516ZM130.93 27.5746C130.188 29.2675 127.848 28.915 126.447 28.3868C124.577 31.2311 121.467 33.5462 117.637 34.9449L120.68 40.1002C126.592 37.5246 130.968 33.2132 132.899 28.1365C132.216 28.0613 131.55 27.8713 130.93 27.5746ZM121.12 41.4386C127.647 38.6822 132.446 33.8599 134.432 28.0793C134.101 28.1493 133.763 28.1805 133.424 28.1723C131.478 33.4308 126.983 37.8996 120.904 40.5528C121.027 40.8335 121.1 41.1331 121.12 41.4386ZM117.704 41.5929L117.708 41.6021C118.675 43.9825 121.545 42.6053 120.247 40.3577L117.154 35.1165C116.587 35.3086 116.007 35.4803 115.411 35.6335C115.399 35.7142 117.671 41.4846 117.704 41.5929ZM114.433 42.3336C115.033 44.7151 117.903 43.9887 117.227 41.7594C117.227 41.7594 114.898 36.0963 114.769 35.7868C114.186 35.9196 113.59 36.032 112.984 36.1229C112.978 36.1454 114.433 42.3336 114.433 42.3336ZM111.064 42.7096C111.277 45.2719 114.422 44.8275 113.858 42.2753C113.859 42.2774 112.454 36.2118 112.448 36.1985C111.858 36.2731 111.258 36.3303 110.651 36.365C110.631 36.4202 111.062 42.6585 111.064 42.7096ZM178.857 3.76675C178.575 3.55118 177.969 3.56242 177.201 3.51951C173.298 3.51951 164.229 3.77186 162.466 3.77186C160.702 3.77186 148.234 5.15724 146.283 5.7876C145.401 6.03996 145.212 6.92063 146.283 6.98397C147.353 7.04732 160.663 7.23735 162.552 7.23735C164.018 7.23735 171.638 7.21181 176.042 6.33828C178.426 5.86525 179.705 4.41244 178.857 3.76675ZM174.568 8.43065C172.301 8.49399 160.968 8.55734 159.645 8.49399C158.323 8.43065 148.058 7.86465 146.862 7.80131C144.274 7.66542 143.435 8.81786 146.169 9.43903C147.554 9.75473 160.338 11.2024 170.034 11.0134C171.86 11.0768 174.316 10.1317 174.946 9.25003C175.577 8.36833 174.884 8.43065 174.568 8.43065ZM170.161 12.5878C168.587 12.5878 150.011 11.2024 146.106 10.3841C142.71 9.86711 143.476 11.6121 144.847 11.8951C146 12.1332 159.771 14.7915 166.761 14.9172C169.09 14.8549 171.798 12.6501 170.161 12.5878ZM165.439 16.4916C163.235 16.2392 148.562 13.9098 144.596 12.8391C141.008 11.9094 141.731 14.294 143.021 14.6659C144.169 14.9969 156.673 18.0404 159.519 18.1927C160.726 18.2561 161.936 18.1745 163.124 17.9495C167.145 17.1455 165.439 16.4916 165.439 16.4916ZM159.519 19.766C157.945 19.4514 145.162 16.5539 141.509 15.1696C139.731 14.5494 139.194 16.2975 140.313 16.8063C141.006 17.1209 150.829 21.2137 155.489 21.4661C157.189 21.4661 160.334 20.5507 159.519 19.766ZM138.675 17.1209C138.55 17.3733 137.385 18.1916 136.88 18.443C138.961 20.471 143.869 22.2722 146.275 23.0435C146.71 23.1825 152.968 24.8927 153.271 22.8821C153.311 22.6195 152.812 22.4111 152.34 22.2854C148.94 21.5294 140.123 17.8136 138.675 17.1209ZM136.03 19.2623C135.59 19.5147 134.771 20.0184 134.392 20.2074C135.148 20.9001 139.814 24.6813 143.01 25.1768C145.902 26.0012 147.46 24.479 145.979 23.9855C143.146 23.1048 136.974 19.8917 136.03 19.2623ZM133.135 20.9634C132.756 21.1514 131.937 21.4344 131.624 21.5304C133.235 23.8629 135.132 25.1676 136.699 25.8092C139.22 26.7246 139.772 26.1739 139.786 25.8838C139.815 25.2769 138.442 24.5178 137.867 24.1336C136.473 23.2029 134.275 21.744 133.135 20.9634ZM130.3 21.9074C129.891 22.0964 129.387 22.2221 128.946 22.3478C129.278 23.492 130.163 24.6353 131.078 25.5006C131.725 26.1116 133.523 27.7084 134.094 26.5989C134.622 25.5742 133.09 24.9356 132.401 24.0488C131.654 23.3051 130.89 22.498 130.3 21.9074ZM152.214 3.26818C150.577 3.26818 145.036 3.64619 143.02 3.64619C137.229 3.64619 129.392 2.62453 124.007 3.73099C120.659 4.41857 120.179 5.38813 120.179 6.43023C120.179 7.78598 121.311 8.60025 122.114 9.18873C123.059 9.88142 125.957 11.5815 126.082 15.99C126.837 15.6753 127.908 15.4863 127.153 13.9119C125.833 11.2729 122.868 8.05877 127.941 6.68973C128.741 6.47416 129.727 6.33317 130.932 6.29231C134.647 6.16664 140.034 6.13906 141.86 5.82438C143.686 5.50971 150.579 3.89957 152.026 3.71158C152.656 3.64517 152.656 3.3305 152.214 3.26818ZM137.656 7.09738C136.334 7.09738 132.285 7.06979 130.927 7.13416C127.171 7.31295 124.49 9.14275 127.202 12.5766C127.733 13.2478 129.153 14.6546 129.72 15.1583C130.224 15.5363 131.169 14.906 130.35 13.9619C131.421 14.5913 132.743 14.4656 132.114 13.0179C133.058 13.774 134.633 13.8363 133.689 11.8849C134.318 12.3886 136.081 12.3263 134.947 10.8142C135.892 11.1289 136.963 10.5618 136.269 9.61783C137.467 9.80786 138.159 8.92514 136.899 8.23347C138.097 8.54508 138.412 7.1597 137.656 7.09738ZM141.351 6.42819C140.344 6.49153 139.375 6.63967 139.354 7.03506C139.332 7.42023 140.075 7.70425 141.005 7.87691C141.509 7.9709 143.967 8.42146 144.02 7.22815C144.073 6.03587 141.861 6.39549 141.351 6.42819ZM141.262 8.47254C140.068 8.38161 138.669 8.32849 138.669 8.7157C138.669 9.1591 139.208 9.71693 140.25 9.9703C142.625 10.5475 143.334 9.85281 143.429 9.50953C143.731 8.41839 141.799 8.51341 141.262 8.47254ZM139.735 10.2441C138.523 10.0449 137.552 9.93863 137.398 10.2533C136.882 11.3117 140.182 12.2415 140.628 12.1883C141.303 12.1076 141.701 12.3538 141.961 11.5753C142.332 10.4587 140.117 10.3074 139.735 10.2441ZM138.641 11.8267C137.852 11.5059 137.032 11.323 136.708 11.843C136.448 12.2578 136.462 12.8442 137.518 13.3602C139.602 14.3788 140.608 13.9752 140.708 13.6483C140.808 13.3224 140.836 12.7186 138.641 11.8267ZM137.102 13.3265C135.826 12.8718 134.737 12.7564 134.55 13.1998C134.343 13.6881 135.093 14.3032 136.246 15.0367C138.155 16.2525 138.878 15.7499 139.077 15.2779C139.258 14.8508 139.388 14.1234 137.102 13.3265ZM136.207 15.617C134.026 14.294 133.348 14.2695 133.131 14.5882C132.92 14.8978 133.159 15.3208 133.53 15.7233C134.031 16.2658 136.026 18.0394 136.701 17.0341C137.079 16.4732 136.807 15.9808 136.207 15.617ZM132.597 15.7877C131.325 15.143 130.936 16.038 131.644 16.8553C133.258 18.7209 134.224 18.395 134.634 18.0844C135.004 17.8034 135.26 17.1455 132.597 15.7877ZM131.267 17.2119C128.705 15.1879 127.896 16.6775 130.342 19.0304C130.764 19.435 131.267 20.0878 132.127 19.4932C133.146 18.7873 131.829 17.8402 131.267 17.2119ZM123.234 4.87832C121.364 5.81315 120.591 6.8062 122.512 8.16298C122.745 8.32849 122.455 8.74022 122.22 8.57471C120.109 7.08308 120.563 5.53525 123.009 4.42777C123.266 4.29904 123.49 4.74959 123.234 4.87832ZM128.166 20.0419C128.954 20.8122 130.528 20.2942 129.636 19.0079C128.022 16.6765 127.368 17.5143 127.346 17.5459C127.717 18.348 127.993 19.1827 128.166 20.0419ZM128.218 24.0018C128.049 24.9724 127.747 25.9144 127.327 26.8145C128.538 28.3511 130.787 27.0188 129.923 25.9379C129.509 25.4209 128.882 24.7732 128.218 24.0018Z" fill="#FEFEFA"/>
</g>
<defs>
<clipPath id="clip0_4878_69645">
<rect width="218.285" height="45" fill="white" transform="translate(0.354736)"/>
</clipPath>
</defs>
</svg>
