<svg width="257" height="45" viewBox="0 0 257 45" fill="none" xmlns="http://www.w3.org/2000/svg">
<g clip-path="url(#clip0_4878_69667)">
<path fill-rule="evenodd" clip-rule="evenodd" d="M115.996 10.5121C118.64 10.5105 120.894 12.8123 120.351 15.7439L117.984 28.5172C117.36 31.8787 114.51 34.249 111.09 34.2458L98.2261 34.2347C95.1464 34.2331 92.5229 31.5491 93.1559 28.1327L95.4553 15.7248C96.0206 12.6754 98.6034 10.5257 101.705 10.5233L115.996 10.5121ZM107.191 28.6542C109.803 28.6558 110.429 27.8134 110.891 25.7298L112.385 17.6946C112.612 16.4756 111.664 15.7479 110.898 15.7479H106.094C103.932 15.7495 102.937 16.2957 102.401 19.1859L101.042 26.5172C100.666 28.5451 102.432 28.6526 103.623 28.6542H107.191ZM129.485 28.6406L136.769 28.655L142.078 0.0119429L149.265 0L142.917 34.2434L125.052 34.2355C121.728 34.2323 119.328 31.6526 119.981 28.1287L122.281 15.72C122.847 12.6698 125.429 10.5312 128.531 10.5288L138.553 10.5304L137.583 15.7614L132.919 15.7622C130.758 15.763 129.725 16.2901 129.188 19.1803L127.829 26.5116C127.598 27.7616 128.211 28.639 129.485 28.6406ZM154.849 10.5488L173.117 10.5296L167.891 38.6408C166.765 44.7166 163.124 44.9825 159.807 44.9809H159.516L159.519 44.9889L143.966 45L144.961 39.5915H158.022C159.753 39.5915 160.797 38.3582 161.032 37.0922L164.997 15.7622L159.229 15.7654C157.069 15.767 155.976 16.2989 155.44 19.189L154.081 26.5204C153.704 28.5483 155.562 28.6398 156.752 28.6398H161.047L160.011 34.2363H151.356C148.031 34.2347 145.644 31.7856 146.319 28.1422L148.619 15.7336C149.184 12.6841 151.747 10.5511 154.849 10.5488ZM181.972 24.5339L182.774 20.2336H190.146L190.706 17.6954C190.924 16.4764 190.016 15.7487 189.28 15.7487H184.669C182.595 15.7503 181.64 16.2965 181.126 19.1866L179.821 26.518C179.46 28.5459 181.154 28.6406 182.298 28.6422L195.784 28.6438L194.745 34.2466L177.118 34.2355C174.162 34.2339 171.645 31.5499 172.253 28.1335L174.459 15.7256C175.001 12.6762 177.481 10.5265 180.457 10.5241L194.173 10.5129C196.71 10.5113 198.872 12.8131 198.351 15.7447L196.787 24.5371L181.972 24.5339ZM63.2333 8.69601L64.2819 3.04305L87.557 3.04464C91.9838 3.04464 94.9122 4.99372 94.1168 10.4803L91.1064 26.7226C89.6781 32.5531 87.4671 34.2355 78.1142 34.2371L58.5 34.2259L62.7087 11.5161L70.8155 11.5201L67.7231 28.2147H79.3801C80.4311 28.2099 82.3412 27.6565 82.9973 25.0888L85.5466 11.3322C85.7871 9.96196 84.7632 8.69124 82.6119 8.69522L63.2333 8.69601Z" fill="#FEFEFA"/>
</g>
<defs>
<clipPath id="clip0_4878_69667">
<rect width="256" height="45" fill="white" transform="translate(0.5)"/>
</clipPath>
</defs>
</svg>
