<svg width="257" height="45" viewBox="0 0 257 45" fill="none" xmlns="http://www.w3.org/2000/svg">
<g clip-path="url(#clip0_4878_69664)">
<path d="M147.07 25.7423C148.45 24.054 150.138 22.9031 151.482 23.0564C153.129 23.2478 153.284 24.8597 152.478 26.3552L152.9 26.471C152.9 26.471 151.596 28.6577 150.254 30.0006C147.876 32.4169 146.341 31.6113 145.996 31.3429C145.65 31.0746 145.382 30.1157 145.535 29.1562C145.65 28.1973 146.379 26.5861 147.07 25.7423Z" fill="#FEFEFA"/>
<path fill-rule="evenodd" clip-rule="evenodd" d="M73.6433 22.5191C73.6439 32.801 98.3873 41.1257 129 41.1257C159.575 41.1257 184.395 32.801 184.395 22.5191C184.395 12.2766 159.575 3.95189 129 3.95189C98.3873 3.95189 73.6433 12.2766 73.6433 22.5191ZM126.557 10.8562C125.585 10.5315 124.729 10.2454 124.03 10.0557C124.14 10.1602 124.217 10.3302 124.129 10.5509C124.09 10.6278 123.707 11.0494 123.554 11.1645C123.444 11.2637 123.295 11.3835 123.114 11.5302C122.032 12.4043 119.77 14.2322 117.339 18.3383C119.641 18.2232 122.326 17.7628 122.326 17.7628C122.326 17.7628 122.173 17.2643 122.173 16.8421C122.288 15.1927 123.247 14.195 124.475 14.387C125.166 14.5021 125.626 15.0776 125.626 15.6912C125.626 16.3436 125.127 17.3025 124.628 17.7628C124.282 18.0305 123.898 18.2995 123.438 18.5297C123.438 18.9519 124.013 19.2972 124.512 19.336C124.48 19.4535 124.46 19.5532 124.443 19.6351C124.401 19.8467 124.382 19.9389 124.244 19.9114C123.093 19.9114 122.633 18.7986 122.633 18.7986C121.099 19.067 119.603 19.259 116.572 19.5661C108.937 31.919 106.559 33.9525 101.879 33.9525C98.5411 33.9525 95.5876 31.7658 95.5106 27.8527C95.4718 25.4746 97.3902 22.5585 100.958 21.6759C101.38 21.6759 101.533 21.8298 101.533 22.06C101.533 22.2139 101.38 22.4053 101.034 22.5585C99.9985 22.9426 98.1958 24.9754 98.1958 26.8557C98.1958 28.2749 99.0784 29.848 100.574 30.1927C100.912 30.2853 101.225 30.2789 101.533 30.2727C101.61 30.2712 101.687 30.2696 101.764 30.2696C105.485 30.2696 109.666 26.0882 114.193 19.72C113.464 19.7582 110.357 20.1041 109.589 20.986C109.245 21.2543 109.014 21.1011 108.938 20.794C108.938 20.717 109.053 20.4487 109.168 20.2948C110.285 19.0386 113.433 18.6714 114.656 18.5287C114.778 18.5145 114.881 18.5026 114.96 18.4922C118.25 13.4484 122.444 10.2151 123.63 9.95403C123.604 9.94805 123.579 9.94225 123.554 9.93662C120.6 9.24608 117.915 8.67062 115.804 8.67062C108.4 8.67062 105.101 11.855 105.255 14.7704C105.331 15.9595 106.29 16.727 107.71 16.458C109.245 16.1897 111.393 14.7317 111.93 13.4657C112.045 13.1973 112.352 13.1585 112.467 13.2355C112.697 13.4275 112.62 13.6958 112.62 13.6958C112.428 15.192 110.126 19.3353 106.137 19.3353C103.912 19.3353 102.416 17.2637 102.454 15.2302C102.492 11.4322 106.367 7.59602 115.919 7.59602C117.722 7.59602 119.755 7.74926 121.981 8.13332C124.55 8.59368 130.957 9.66766 136.174 9.7446C136.485 9.7446 136.809 9.74661 137.144 9.74869C138.876 9.75944 140.871 9.77183 142.543 9.51441C143.551 9.34941 143.972 9.24569 144.229 9.18237C144.511 9.11317 144.596 9.0922 145.037 9.0922C145.803 9.0922 145.803 9.39932 145.803 9.70644C145.803 10.9343 141.506 13.2743 137.862 13.2743C133.793 13.2743 129.605 11.8749 126.557 10.8562ZM143.401 26.3321C143.435 26.3011 143.469 26.2704 143.502 26.2401C144.046 25.7288 144.539 25.2125 145.013 24.7159C146.817 22.8277 148.351 21.2229 151.328 21.2531C153.359 21.2873 154.03 22.7428 154.423 23.5958C154.468 23.6935 154.51 23.7832 154.549 23.862L159.498 15.4991H162.529L154.32 30.0388C154.291 30.0956 154.255 30.1617 154.214 30.2346C154.038 30.5548 153.789 31.0061 153.82 31.3811C153.899 32.1098 154.819 31.9184 154.474 31.9184C156.123 31.8415 159.153 28.6959 159.882 27.929L159.892 27.9167C160.046 27.7221 160.308 27.3917 160.457 27.3917C160.611 27.3917 160.918 27.5449 160.918 27.7751C160.918 27.929 160.573 28.5038 160.304 28.8491C158.769 30.7675 156.238 33.7211 153.361 33.798C151.941 33.798 151.404 33.2226 151.212 32.1104C150.56 32.6852 148.335 33.6829 146.072 33.6829C144.192 33.6448 143.424 32.532 143.041 31.6501C142.696 30.9214 142.542 29.8474 142.811 28.7734C141.775 29.3107 140.816 29.387 139.435 29.3489C137.823 29.3101 136.825 28.5814 136.327 26.7011C135.907 27.4723 135.578 28.0732 135.299 28.5836C134.356 30.308 133.979 30.9981 132.529 33.7217H129.269L133.45 26.6248C133.988 25.6653 134.256 24.8985 134.447 24.0935C134.563 23.6325 134.217 23.2103 133.718 23.1727C133.182 23.1727 132.3 23.71 131.455 24.515C131.455 24.515 129.307 26.8169 127.734 29.1568C126.237 31.3824 123.668 33.9137 120.868 33.9137C118.834 33.9137 116.993 32.8016 116.609 30.653C116.609 30.653 116.417 31.1515 114.614 32.1874C114.589 32.1997 114.558 32.2161 114.523 32.2346C114.344 32.3302 114.059 32.4815 113.963 32.4176C113.617 32.1111 113.425 31.727 113.387 31.458C113.493 31.494 113.699 31.3311 114.312 30.8471C114.359 30.8098 114.408 30.7705 114.461 30.7293C115.88 29.6554 116.187 28.8103 116.187 28.8103C116.464 28.2237 116.917 27.3635 117.303 26.6301C117.396 26.4524 117.486 26.2822 117.568 26.1251C118.72 23.8232 120.714 21.4833 123.974 21.3682C124.512 21.3682 124.665 21.5983 124.78 21.7904C125.087 22.0206 124.972 22.4809 124.972 22.4809C122.67 22.8262 121.098 24.1685 120.138 25.4733C119.563 26.3171 118.949 27.6982 118.834 28.6952C118.604 30.4216 119.409 31.5719 120.599 31.8408C122.823 32.1861 124.665 30.5748 126.123 28.0816C126.507 27.4292 126.775 25.741 126.775 24.8203C126.775 23.8995 126.276 22.9407 125.893 22.5566C125.893 21.9048 126.314 21.4826 126.813 21.4826C126.966 21.4826 127.12 21.4826 127.273 21.6359C128.041 22.4034 128.463 23.8614 128.463 24.9735C128.463 25.3576 128.463 25.741 128.386 26.1251C128.452 26.0451 128.518 25.9641 128.586 25.8824C130.163 23.9649 132.094 21.6161 133.604 21.138C133.91 20.9847 134.217 20.9847 134.524 20.9847C137.401 20.9078 137.018 23.5167 137.018 23.5167C138.552 21.7522 139.626 21.0998 141.045 21.1761C142.58 21.2531 143.117 22.3277 143.117 23.1715C143.078 24.1685 142.351 25.3194 141.085 25.3576C139.971 25.3576 139.32 24.8203 138.974 23.8232C138.246 24.0922 137.901 24.5907 137.747 25.5878C137.516 26.8538 138.476 27.8514 139.703 27.8514C141.721 27.852 142.652 27.0097 143.401 26.3321Z" fill="#FEFEFA"/>
<path fill-rule="evenodd" clip-rule="evenodd" d="M69.5 22.5191C69.5 34.9489 96.1242 45 129 45C161.838 45 188.462 34.9483 188.462 22.5191C188.462 10.0899 161.838 0 129 0C96.1242 0 69.5 10.0899 69.5 22.5191ZM186.198 22.5191C186.198 33.7211 160.611 42.6982 129 42.6982C97.4665 42.6982 71.8406 33.7211 71.8406 22.5191C71.8406 11.3559 97.4665 2.26367 129 2.26367C160.611 2.26367 186.198 11.3559 186.198 22.5191Z" fill="#FEFEFA"/>
</g>
<defs>
<clipPath id="clip0_4878_69664">
<rect width="256" height="45" fill="white" transform="translate(0.5)"/>
</clipPath>
</defs>
</svg>
