<svg width="220" height="45" viewBox="0 0 220 45" fill="none" xmlns="http://www.w3.org/2000/svg">
<g clip-path="url(#clip0_4878_69639)">
<path d="M127.346 4V23.9835C127.264 24.0931 143.853 13.7899 143.853 13.7899L127.346 4Z" fill="#FEFEFA"/>
<path d="M162.225 16.487H158.091C155.767 16.4054 154.31 17.9431 154.364 20.1813V42H148.122V20.1813C148.608 15.138 152.932 11.2007 158.091 11.1735H162.225V16.487Z" fill="#FEFEFA"/>
<path d="M165.628 32.642L165.656 32.6683C166.197 37.6308 170.519 41.5138 175.625 41.5418H179.785V36.2274H175.625C173.329 36.309 171.303 34.7713 171.356 32.5604V16.2711H178.273V10.6617H171.247V4.89084H165.627L165.628 32.642Z" fill="#FEFEFA"/>
<path d="M92.2514 41.677H86.0139V19.8574H86.0403C85.9858 17.7272 83.6628 15.9201 81.339 15.9201C79.0151 15.9201 76.6649 17.7272 76.6376 19.8574V20.0733C76.6376 20.1277 76.6376 20.1541 76.6649 20.1813H76.6376V41.677H70.3967V20.2093H70.3695V19.8583C70.3695 14.1673 75.2871 9.55583 81.3381 9.55583C84.5263 9.55583 87.4164 10.8504 89.4158 12.9007C91.4152 10.8241 94.3325 9.50228 97.5479 9.50228C103.572 9.50228 108.517 14.1409 108.517 19.8047C108.517 19.8582 108.51 19.9186 108.503 19.9791C108.496 20.0399 108.489 20.1008 108.489 20.1549V41.6778H102.248V20.1558H102.221C102.437 17.8904 99.9782 15.8946 97.5471 15.8946C95.2777 15.8946 92.4949 17.5938 92.3059 19.6696V20.1277C92.3059 20.1413 92.2991 20.1547 92.2923 20.1681C92.2855 20.1815 92.2786 20.1949 92.2786 20.2085H92.2514V41.677Z" fill="#FEFEFA"/>
<path d="M39.7849 32.9106L45.9177 32.3181C46.3494 34.7721 51.1044 36.1203 53.2119 36.3906C54.9678 36.6329 60.4525 35.2584 60.4525 32.4524C60.4525 28.8445 56.2493 28.5031 52.0428 28.1615C50.086 28.0025 48.1283 27.8435 46.5929 27.3556C42.7031 26.1154 40.5411 23.8228 40.5411 19.8047C40.5411 13.5204 47.4036 9.42153 52.8066 9.42153C56.7245 9.42153 59.6691 10.258 61.6685 11.9835C63.6407 13.7091 65.1811 15.8665 65.262 18.7524L58.9666 19.0218C58.5885 16.8916 56.4273 15.3539 53.6445 15.3004C51.7532 15.274 49.1595 16.2439 48.187 16.946C46.8092 17.944 47.4036 21.8278 48.9432 22.3404C51.3039 23.121 53.4697 23.0811 55.5128 23.0435C57.7721 23.0018 59.8815 22.9629 61.9384 24.0396C65.1266 25.5773 66.3962 29.6226 66.3962 32.0767C66.3962 39.1141 59.2374 41.7305 53.1583 41.7305C47.9716 41.7297 40.4602 38.9254 39.7849 32.9106Z" fill="#FEFEFA"/>
<path d="M143.124 25.953C143.043 23.0944 142.151 20.4516 140.719 18.1862L140.467 18.3208C138.984 19.1116 137.5 19.9031 135.99 20.6947C137.153 22.3123 137.802 24.281 137.802 26.4112C137.802 31.8863 133.316 36.3643 127.833 36.3643C122.322 36.3643 117.836 31.8863 117.836 26.4112C117.836 21.6926 121.158 17.7281 125.589 16.7029C125.64 15.0269 125.714 13.351 125.788 11.654L125.805 11.2551C118.323 12.253 112.54 18.6716 112.54 26.4112C112.54 34.8265 119.404 41.677 127.833 41.677C131.604 41.6789 135.242 40.2851 138.044 37.7651V41.677H143.15V25.953H143.124Z" fill="#FEFEFA"/>
</g>
<defs>
<clipPath id="clip0_4878_69639">
<rect width="218.285" height="45" fill="white" transform="translate(0.784912)"/>
</clipPath>
</defs>
</svg>
