<svg width="219" height="45" viewBox="0 0 219 45" fill="none" xmlns="http://www.w3.org/2000/svg">
<g clip-path="url(#clip0_4878_69642)">
<path fill-rule="evenodd" clip-rule="evenodd" d="M118.741 18.4916C117.991 17.5625 118.395 16.0542 119.508 15.1751C120.62 14.2959 122.241 14.4126 122.924 15.2459C123.687 16.1709 123.337 17.6625 122.228 18.5416C121.12 19.4207 119.491 19.4165 118.741 18.4916ZM64.4725 9.06283C68.2116 7.69558 72.0819 6.71821 76.0219 6.14629C78.9343 5.74631 82.2133 6.0588 83.1883 8.45036C84.1591 10.8378 82.6508 15.1459 74.122 18.9457C65.8224 22.6456 55.2478 24.433 48.6523 24.5747C47.4911 25.97 46.4891 27.4904 45.6649 29.1078C44.8983 30.5786 44.5442 32.0493 44.5983 33.1326C44.7191 35.5658 46.6274 36.8616 49.5564 36.6241C51.1397 36.495 52.9771 35.7867 54.977 34.7325C58.9519 32.6368 63.585 29.1245 68.1014 25.8788C68.7222 25.4329 70.0764 24.5122 70.1764 24.4455C72.8096 22.7164 75.1928 21.6081 77.9885 20.954C78.8801 20.7457 80.4134 20.5207 82.1008 20.5748C84.584 20.6498 86.9756 21.1123 88.2589 21.8956C87.6298 22.2873 87.0381 22.8164 86.7006 23.1122C83.2883 26.0954 80.5134 29.5911 79.1176 31.7743C78.7176 32.3993 78.4551 33.2618 78.7676 33.5451C79.0301 33.7867 79.601 33.7909 80.4801 33.2326C82.1675 32.1618 85.7923 28.8036 87.9964 26.912C88.513 26.4704 91.5962 24.158 92.6087 23.5539L92.6712 23.5122C94.8419 22.2206 96.8252 21.5415 98.196 21.1706C101.3 20.329 104.162 20.4707 104.642 20.8123C107.414 18.2505 110.131 15.6292 112.791 12.9502C114.087 12.9502 116.574 12.946 117.945 12.9168C117.491 13.2222 117.055 13.5547 116.641 13.9126C115.304 15.2001 110.858 19.4707 107.271 23.1039C103.383 27.037 101.204 29.5744 100.058 31.566C99.4751 32.5743 99.2292 33.3909 99.5792 33.6784C99.9584 33.9951 100.733 33.7368 101.621 33.1493C103.633 31.816 109.229 26.7537 111.179 24.808C111.179 24.808 114.437 21.5623 115.166 20.8873C116.462 20.8915 118.841 20.8831 120.208 20.854C119.837 21.104 119.158 21.5706 118.874 21.8414C116.253 24.3622 112.708 28.0453 111.158 30.2619C109.937 32.0118 110.095 33.1118 110.516 33.5534C111.32 34.3951 113.866 33.9076 117.583 31.8743C117.274 30.1994 117.862 27.6162 119.174 25.5913C121.987 21.2498 127.874 15.8042 132.415 13.521C134.694 12.3752 136.157 12.1835 137.057 12.9043C138.14 13.771 137.811 15.7709 136.611 17.6416C132.969 23.2997 128.978 26.7037 121.224 31.7035C121.22 33.0326 121.957 33.9159 123.861 33.9159C126.349 33.9159 128.845 33.0451 131.461 31.7327C131.211 30.0827 131.878 27.5079 133.132 25.5746C135.923 21.2706 141.844 15.7834 146.361 13.5085C148.723 12.321 150.102 12.2044 150.994 12.9002C152.127 13.7835 151.748 15.8209 150.469 17.7999C146.94 23.2664 142.969 26.6537 135.082 31.741C134.957 33.1784 135.703 33.8867 136.836 33.8534C138.64 33.8034 140.894 32.2701 144.231 29.2453C145.323 28.2578 148.969 24.9955 149.84 24.4288C152.506 22.6789 154.868 21.5914 157.648 20.929C159.366 20.562 161.13 20.4567 162.881 20.6165C164.851 20.7707 166.705 21.1748 167.922 21.8664C167.251 22.2873 166.61 22.8581 166.318 23.1122C163.434 25.6527 160.896 28.5607 158.768 31.7618C158.327 32.4576 158.127 33.2576 158.414 33.5243C158.722 33.8034 159.322 33.7034 160.102 33.2118C161.789 32.141 168.347 26.1579 168.414 26.0913C171.08 23.483 174.063 21.5831 177.192 20.6207C180.03 19.7499 182.901 19.8957 183.767 21.8248C185.009 24.5872 182.292 28.0245 178.13 28.7911L177.73 27.3329C179.776 25.9954 181.634 23.4039 180.684 22.3831C179.992 21.6373 178.513 22.0123 177.297 22.7122C175.188 23.9247 172.222 26.6996 170.509 29.5994C169.393 31.4827 169.251 33.4034 170.309 34.3701C171.351 35.32 172.88 35.3742 174.355 35.0159C177.617 34.2242 180.38 32.0785 182.646 29.6453L183.305 31.5285C180.801 34.1326 177.876 35.9575 174.847 36.7325C171.434 37.6074 168.922 37.2241 167.293 35.5367C166.18 34.3867 165.747 32.5076 166.068 30.5786C164.101 32.4076 162.581 33.7826 161.364 34.6242C159.852 35.67 157.91 36.4283 156.514 35.4867C155.102 34.5367 155.343 32.1035 155.906 31.0119C154.371 32.4201 152.705 33.6786 150.931 34.77C148.581 36.1991 146.273 36.2741 145.206 34.97C144.531 34.1409 144.277 32.791 144.794 31.1077C142.915 32.7785 141.061 34.2659 139.302 35.1325C138.252 35.68 137.078 35.9469 135.894 35.9075C133.824 35.8117 132.665 34.7825 132.007 33.4201C128.432 35.2992 125.891 35.9158 123.274 35.9158C120.77 35.9158 119.112 34.87 118.237 33.4993C116.8 34.3803 115.255 35.0721 113.641 35.5575C111.387 36.1783 109.17 36.1575 108.079 35.0409C107.271 34.2159 106.683 32.6451 107.525 30.3869C105.437 32.3451 103.925 33.7284 102.654 34.62C101.187 35.645 98.9459 36.52 97.6168 35.4575C96.0877 34.2326 96.6418 31.9077 97.1918 30.9785C96.7335 31.4077 96.3002 31.7702 95.8711 32.1368C94.69 33.142 93.4383 34.061 92.1254 34.8867C89.9172 36.295 88.1089 36.17 87.0506 35.5033C85.709 34.6659 85.6382 32.6618 86.1923 30.8702C84.3466 32.566 82.8633 33.8534 81.7092 34.6534C80.1551 35.7325 78.2593 36.445 76.8427 35.4908C75.2886 34.4451 75.8636 31.7618 76.2219 31.0702C75.5386 31.6952 74.7886 32.2868 74.0262 32.8701C73.1467 33.5509 72.233 34.1865 71.2888 34.7742C69.0639 36.1241 66.7015 36.3741 65.589 35.0159C64.7182 33.9492 64.4808 32.1327 65.6932 29.7661C58.6019 35.3283 52.748 39.1198 47.3649 39.1198C41.6776 39.1198 38.6111 33.8784 40.3235 28.537C40.8231 26.9552 41.5456 25.4526 42.4692 24.0747C37.2528 23.1414 34.3779 21.329 34.0904 18.1166C33.8196 15.0792 36.2737 12.9335 38.1069 11.7252C39.5246 10.7846 41.0285 9.98101 42.5984 9.32532C46.8024 7.58373 53.0479 6.44211 57.8894 6.60461L58.7269 8.45452C58.5102 8.41703 58.2727 8.39619 58.0144 8.37119C56.1811 8.22537 52.9063 8.48786 49.5523 9.32115C46.5524 10.0628 43.2442 11.3836 41.2068 13.1252C38.3319 15.5834 38.4361 18.0624 39.4235 19.529C40.3152 20.8498 41.5943 21.6248 43.9858 22.0789C44.8691 21.0498 45.8899 20.0498 47.0524 19.0249C52.0355 14.6543 58.2769 11.3002 64.4725 9.06283ZM50.5814 22.5122C59.6018 22.2039 67.6223 18.4249 74.172 15.2376C78.7884 12.9918 81.8675 10.5461 81.1717 8.93367C80.9509 8.42119 80.2759 8.1462 79.4468 8.06704C78.4073 7.98556 77.3617 8.03455 76.3344 8.21287C73.4554 8.63785 70.1639 9.62531 66.3599 11.5044C64.9932 12.1794 63.5641 12.9668 62.06 13.8876C59.2268 15.6209 56.2311 17.75 53.0563 20.3332C52.2021 21.0257 51.3765 21.7527 50.5814 22.5122ZM135.549 15.5C136.523 14.1001 135.819 13.6001 134.474 14.4918C131.42 16.5125 128.59 19.2291 126.324 21.8039C123.999 24.4455 121.991 27.512 121.491 29.4536C124.032 27.7453 126.536 25.4996 128.699 23.3414C131.661 20.3707 134.303 17.2916 135.549 15.5ZM149.498 15.5C150.469 14.1084 149.79 13.5876 148.415 14.4918C143.294 17.8624 136.694 25.0121 135.415 29.5036C137.936 27.8578 140.994 25.0746 143.661 22.3164C146.244 19.6457 148.431 17.0291 149.498 15.5ZM161.814 22.7914C161.589 22.6164 160.827 22.3914 159.943 22.3831C158.985 22.3747 157.831 22.7039 156.752 23.2872C152.931 25.3663 150.077 28.1328 148.102 31.266C147.456 32.2951 147.506 33.1284 147.785 33.3826C148.173 33.7367 148.923 33.6451 150.248 32.9951C153.081 31.6077 157.602 27.2037 161.814 22.7914ZM102.917 22.8414C102.558 22.612 102.149 22.4746 101.725 22.4414C100.657 22.324 99.5773 22.5179 98.6167 22.9997C95.4044 24.5413 92.2337 27.0495 89.6088 30.8994C88.8755 31.9743 88.6422 33.0993 89.038 33.4701C89.463 33.8659 90.3963 33.7284 91.5129 33.0868C95.2086 30.9577 99.2001 26.6746 102.917 22.8414ZM77.4094 27.5829C78.9676 26.0913 80.5884 24.458 82.1633 22.8039C81.9133 22.6206 81.0883 22.4081 80.2717 22.4039C79.3468 22.3956 78.0801 22.7664 77.0802 23.308C73.5647 25.1747 70.5932 27.9209 68.4556 31.2785C67.8056 32.3201 67.8389 33.1159 68.1514 33.4034C68.5472 33.7659 69.2806 33.6701 70.5889 33.0285C72.3554 32.1577 74.7928 30.0869 77.4094 27.5829ZM182.084 37.0949C181.239 37.0949 180.555 36.4103 180.555 35.5658C180.555 34.7213 181.239 34.0367 182.084 34.0367C182.928 34.0367 183.613 34.7213 183.613 35.5658C183.613 36.4103 182.928 37.0949 182.084 37.0949ZM182.084 36.9158C182.83 36.9158 183.434 36.3114 183.434 35.5658C183.434 34.8203 182.83 34.2159 182.084 34.2159C181.338 34.2159 180.734 34.8203 180.734 35.5658C180.734 36.3114 181.338 36.9158 182.084 36.9158ZM181.517 36.4325V34.7159H182.267C182.413 34.7159 182.555 34.7242 182.684 34.8034C182.813 34.8742 182.876 35.0284 182.876 35.17C182.876 35.5075 182.638 35.6325 182.334 35.6408L182.855 36.4325H182.605L182.113 35.6408H181.726V36.4325H181.517ZM181.726 34.87V35.4783H182.046C182.288 35.4783 182.659 35.52 182.659 35.17C182.659 34.9075 182.426 34.8742 182.213 34.8742H181.726V34.87Z" fill="white"/>
</g>
<defs>
<clipPath id="clip0_4878_69642">
<rect width="218.285" height="45" fill="white" transform="translate(0.0698242)"/>
</clipPath>
</defs>
</svg>
