<svg width="257" height="45" viewBox="0 0 257 45" fill="none" xmlns="http://www.w3.org/2000/svg">
<g clip-path="url(#clip0_4878_69661)">
<path fill-rule="evenodd" clip-rule="evenodd" d="M113.494 22.007C115.956 25.5178 118.431 29.0191 120.919 32.5109C121.041 32.6689 121.09 33.2776 120.59 33.2776L115.356 33.3142C114.808 33.3142 114.285 32.8758 114.017 32.5593L110.755 28.5422L107.676 24.7325L107.664 32.4862C107.664 32.815 107.372 33.3018 107.031 33.3142L102.211 33.3384C101.87 33.3384 101.383 32.8032 101.383 32.4501V13.8386C101.383 13.6441 100.507 13.4979 100.519 12.7919C100.531 12.074 100.884 11.9278 101.273 11.9278H106.898C107.202 11.9278 107.701 12.2324 107.701 12.7069L107.677 19.6696L110.756 15.6407L112.971 12.7558C113.288 12.3544 114.018 11.8918 114.383 11.8918L119.288 11.9283C119.799 11.9283 120.092 12.342 119.848 12.7074L113.494 22.007ZM131.557 11.9288C131.983 11.9288 132.385 12.2329 132.385 12.7074V32.4871C132.385 32.9502 132.239 33.2786 131.692 33.2786L128.722 33.3028L126.726 33.3151C126.3 33.3151 125.995 32.9863 125.995 32.4871V13.7057C125.995 13.6934 125.203 13.4865 125.082 12.7321C125.192 12.3183 125.338 11.9288 125.995 11.9288H131.557ZM148.489 2.33688C163.157 6.01278 173.272 13.6815 173.271 22.5062C173.271 31.3313 163.156 38.9996 148.488 42.6755C142.573 44.1725 135.915 45 128.879 45H128.721C122.343 45 116.257 44.2944 110.755 43.0403C95.309 39.5106 84.5 31.6236 84.5 22.5062C84.5 13.3892 95.309 5.50175 110.756 1.97152C116.257 0.717908 122.344 0.0118637 128.722 0.0118637C128.782 0.0118637 128.831 0 128.88 0C135.916 0 142.573 0.839857 148.489 2.33688ZM148.489 37.7701C161.306 34.8245 170.034 29.0788 170.034 22.5062C170.034 15.9335 161.306 10.1883 148.489 7.24267C142.659 5.89179 135.976 5.125 128.88 5.125H128.722C122.295 5.13686 116.197 5.78217 110.756 6.91431C97.1348 9.75036 87.7379 15.6782 87.7379 22.5066C87.7379 29.3351 97.1348 35.2629 110.756 38.099C116.197 39.2311 122.295 39.8764 128.722 39.8764C128.782 39.8764 128.831 39.8883 128.88 39.8883C135.976 39.8883 142.659 39.1215 148.489 37.7701ZM152.323 12.7321L159.042 32.536C159.127 32.7794 158.81 33.3151 158.543 33.3151L153.942 33.2786C153.638 33.2786 153.066 32.8283 152.981 32.5484L148.878 19.9624C148.842 19.8405 148.66 19.7797 148.489 19.7797C148.38 19.7797 148.27 19.8286 148.233 19.9135C147.54 22.007 146.834 24.1005 146.128 26.1944L144.034 32.4748C143.876 32.9498 143.328 33.2781 142.939 33.2781L138.52 33.3147C138.131 33.3147 137.851 32.7306 137.96 32.4141L144.302 13.7057C144.363 13.5477 143.243 13.5838 143.255 12.5129C143.255 12.148 143.62 11.9288 143.888 11.9288H151.41C151.824 11.9288 152.141 12.3178 152.323 12.7321Z" fill="#FEFEFA"/>
</g>
<defs>
<clipPath id="clip0_4878_69661">
<rect width="256" height="45" fill="white" transform="translate(0.5)"/>
</clipPath>
</defs>
</svg>
