<svg width="219" height="45" viewBox="0 0 219 45" fill="none" xmlns="http://www.w3.org/2000/svg">
<g clip-path="url(#clip0_4878_69942)">
<path fill-rule="evenodd" clip-rule="evenodd" d="M55.9089 24.8148V19.6394C55.9089 17.9878 57.0739 17 58.6806 17H72.6433C74.25 17 75.415 17.9878 75.415 19.6394V24.8148C75.415 26.4672 74.25 27.4534 72.6433 27.4534H58.6806C57.0739 27.4534 55.9089 26.4672 55.9089 24.8148ZM34 17.0008H51.1176C52.754 17.0008 53.462 18.5634 53.462 20.0082V21.2173C53.462 23.0453 52.3708 24.373 50.469 24.373H36.3893V27.4534H34V17.0008ZM77.9951 17.0008H95.1856C96.4091 17.0008 97.53 17.8114 97.53 19.0942V21.8074C97.53 22.9427 96.6449 23.5464 95.6426 23.8126C97.0874 24.4909 97.3825 25.9942 97.53 27.4534H95.1856C95.0822 25.8763 94.4039 24.373 92.5911 24.373H80.3835V27.4534H77.9951V17.0008ZM119.158 17.0008V19.0942H103.265C102.631 19.0942 102.365 19.5512 102.365 20.1557C102.365 20.7306 102.66 21.1732 103.265 21.1732H116.225C118.348 21.1732 119.497 22.1906 119.497 24.3578C119.497 26.1714 118.525 27.4534 116.638 27.4534H100.347V25.36H116.225C116.771 25.36 117.007 24.8885 117.007 24.4019C117.007 23.843 116.89 23.2521 116.225 23.2521H102.764C101.024 23.2521 100.022 21.9108 100.022 20.2447C100.022 18.1658 101.142 17.0016 103.266 17.0016L119.158 17.0008ZM140.565 17.0008V19.0942H124.878C124.51 19.0942 124.377 19.4478 124.377 19.7581V24.8452C124.377 25.1555 124.569 25.3608 124.878 25.3608H140.565V27.4542H124.878C123.168 27.4542 122.005 26.2748 122.005 24.5494V20.0683C122.005 18.0928 122.844 17.0016 124.878 17.0016L140.565 17.0008ZM143.13 17.0008H145.534V21.0697H159.408V17.0008H161.87V27.4534H159.408V23.1631H145.534V27.4534H143.13V17.0008ZM164.391 17.0008H184V19.0942H166.779V21.1146H184V23.1928H166.779V25.36H184V27.4534H164.391V17.0008ZM59.6836 25.36H71.8031C72.5399 25.36 73.1444 25.0361 73.1444 24.195V20.2592C73.1444 19.4189 72.5551 19.0942 71.8031 19.0942H59.6836C58.9316 19.0942 58.3271 19.4189 58.3271 20.2592V24.195C58.3271 25.0361 58.946 25.36 59.6836 25.36ZM36.3893 19.0942V22.2788H50.012C50.6021 22.2788 51.1176 22.0431 51.1176 21.3792V20.2006C51.1176 19.5079 50.7047 19.095 50.012 19.095L36.3893 19.0942ZM80.3835 22.2788H94.5963C95.0678 22.2788 95.1856 21.8803 95.1856 21.4827V20.0667C95.1856 19.3884 94.9355 19.0934 94.242 19.0934H80.3835V22.2788Z" fill="#FEFEFA"/>
</g>
<defs>
<clipPath id="clip0_4878_69942">
<rect width="218.285" height="45" fill="white"/>
</clipPath>
</defs>
</svg>
