<svg width="256" height="45" viewBox="0 0 256 45" fill="none" xmlns="http://www.w3.org/2000/svg">
<g clip-path="url(#clip0_4878_69961)">
<path d="M56.9304 16.9304C54.9383 16.4996 53.4307 14.7767 53 13.0538L77.6052 13V13.0538C77.1744 14.7767 75.7207 16.392 73.6748 16.9304H67.537L67.2139 17.038V32.4903H63.3912V17.038L63.0682 16.9304H56.9304Z" fill="#FEFEFA"/>
<path d="M90.85 16.9304H105.387C107.433 16.5535 108.94 14.7229 109.317 13H86.8658C87.2965 14.7229 88.804 16.4996 90.85 16.9304Z" fill="#FEFEFA"/>
<path d="M199.07 16.9304H184.533C182.541 16.4996 181.033 14.7229 180.602 13H203C202.569 14.7229 201.116 16.5535 199.07 16.9304Z" fill="#FEFEFA"/>
<path d="M181.195 32.5441V20.7531H202.515V32.5441H198.747V24.6834H184.963V32.5441H181.195Z" fill="#FEFEFA"/>
<path d="M169.727 32.5441C171.611 31.7365 172.634 30.3367 173.065 28.7215H156.105V13.0538H152.282V32.5441H169.727Z" fill="#FEFEFA"/>
<path d="M137.476 16.8765H124.016L124.07 20.7531H141.514V32.5441H119.17C120.085 30.6597 121.916 29.206 124.07 28.6138H137.745V24.5757H120.301V13.0538H141.622C141.191 14.7229 139.522 16.2843 137.476 16.8765Z" fill="#FEFEFA"/>
<path d="M105.387 24.6296H90.85C88.804 24.1989 87.2965 22.4221 86.8658 20.6992H109.317C108.94 22.4221 107.433 24.2527 105.387 24.6296Z" fill="#FEFEFA"/>
<path d="M90.85 32.5441H105.387C107.433 32.1673 108.94 30.3367 109.317 28.6138H86.8658C87.2965 30.3367 88.804 32.1673 90.85 32.5441Z" fill="#FEFEFA"/>
</g>
<defs>
<clipPath id="clip0_4878_69961">
<rect width="256" height="45" fill="white"/>
</clipPath>
</defs>
</svg>
